<?xml version="1.0" encoding="utf-8"?>
<!-- Generator: Adobe Illustrator 23.0.6, SVG Export Plug-In . SVG Version: 6.00 Build 0)  -->
<svg version="1.1" id="Layer_1" xmlns="http://www.w3.org/2000/svg" xmlns:xlink="http://www.w3.org/1999/xlink" x="0px"
     y="0px"
     viewBox="0 0 313.75 62.87" style="enable-background:new 0 0 313.75 62.87;" xml:space="preserve">
<style type="text/css">
	.st0{fill-rule:evenodd;clip-rule:evenodd;}
	.st1{fill:#F58220;}
	.st2{fill:#FFF200;}
	.st3{fill-rule:evenodd;clip-rule:evenodd;fill:#F58220;}
	.st4{fill-rule:evenodd;clip-rule:evenodd;fill:#000001;}
</style>
    <path class="st0" d="M313.75,0v62.87c-104.58,0-209.17,0-313.75,0V0C104.58,0,209.17,0,313.75,0"/>
    <path class="st1" d="M148.12,19.35h5.81v16.59c0,1.54-0.36,2.91-1.07,4.12c-0.71,1.21-1.71,2.14-2.99,2.8c-1.28,0.66-2.7,1-4.27,1
	c-2.63,0-4.68-0.66-6.14-1.99c-1.46-1.33-2.19-3.21-2.19-5.65h5.85c0,1.11,0.19,1.91,0.57,2.41c0.38,0.5,1.02,0.75,1.92,0.75
	c0.81,0,1.43-0.3,1.87-0.91c0.44-0.6,0.65-1.44,0.65-2.53V19.35z M127.48,30.91c0-2.41-0.4-4.23-1.2-5.48
	c-0.8-1.25-1.95-1.87-3.45-1.87c-2.92,0-4.47,2.19-4.63,6.58l-0.02,1.78c0,2.37,0.39,4.19,1.18,5.47c0.78,1.28,1.95,1.91,3.5,1.91
	c1.47,0,2.61-0.63,3.4-1.88c0.8-1.25,1.2-3.05,1.21-5.4V30.91z M133.4,31.93c0,2.36-0.44,4.45-1.31,6.26
	c-0.87,1.82-2.12,3.22-3.73,4.2c-1.61,0.98-3.45,1.47-5.5,1.47c-2.06,0-3.89-0.48-5.48-1.42c-1.59-0.95-2.83-2.3-3.73-4.06
	c-0.89-1.76-1.35-3.78-1.4-6.06v-1.36c0-2.37,0.43-4.46,1.3-6.27c0.87-1.81,2.11-3.21,3.73-4.19c1.62-0.99,3.47-1.48,5.54-1.48
	c2.05,0,3.88,0.49,5.48,1.46c1.6,0.97,2.85,2.36,3.75,4.16c0.89,1.8,1.34,3.86,1.35,6.19V31.93z M88.72,19.35l5.39,16.82l5.38-16.82
	h7.67v24.17h-5.84v-5.64l0.56-11.55l-5.84,17.2h-3.85l-5.86-17.22l0.57,11.57v5.64h-5.83V19.35H88.72z"/>
    <path class="st2" d="M279.74,34.52l-2.39,2.62v6.38h-5.83V19.35h5.83v10.66l2.02-3.07l5.21-7.59h7.2l-8.17,10.69l8.17,13.48h-6.9
	L279.74,34.52z M265.39,43.52h-5.81V19.35h5.81V43.52z M253.42,43.52h-5.79l-8.57-15.04v15.04h-5.83V19.35h5.83l8.55,15.04V19.35
	h5.81V43.52z M215,23.84v15.2h2.02c1.67,0,2.96-0.6,3.85-1.78c0.9-1.19,1.34-2.96,1.34-5.31V30.9c0-2.34-0.45-4.1-1.34-5.28
	c-0.9-1.18-2.2-1.78-3.92-1.78H215z M209.17,43.52V19.35h7.79c2.14,0,4.06,0.48,5.76,1.45c1.71,0.97,3.04,2.33,3.99,4.1
	c0.96,1.77,1.45,3.75,1.46,5.94v1.11c0,2.21-0.47,4.2-1.41,5.95c-0.93,1.76-2.25,3.13-3.95,4.12c-1.7,0.99-3.59,1.49-5.68,1.5
	H209.17z M191.08,34.51h5.2l-2.61-8.39L191.08,34.51z M197.67,39h-7.98l-1.39,4.52h-6.23l8.87-24.17h5.47l8.94,24.17h-6.26
	L197.67,39z M165.51,30.5h3.68c1.11,0,1.94-0.29,2.5-0.87c0.56-0.58,0.84-1.4,0.84-2.44s-0.28-1.86-0.85-2.46
	c-0.56-0.59-1.39-0.89-2.49-0.89h-3.68V30.5z M168.66,34.99h-3.15v8.53h-5.83V19.35h9.51c2.87,0,5.11,0.63,6.73,1.91
	c1.62,1.28,2.42,3.07,2.42,5.39c0,1.68-0.34,3.08-1.02,4.19c-0.68,1.1-1.75,2-3.2,2.69l5.05,9.75v0.25h-6.24L168.66,34.99z"/>
    <rect x="6.8" y="6.8" class="st3" width="49.28" height="49.28"/>
    <path class="st4" d="M31.44,29.73l-6.84-6.84v-4.28h13.68v4.28L31.44,29.73z M38.28,39.99v4.27l-13.68,0v-4.28l6.84-6.84
	L38.28,39.99L38.28,39.99z M21.18,15.19v8.55l7.69,7.7l-7.69,7.7v8.55H41.7v-8.55L34,31.44l7.69-7.7v-8.55H21.18z"/>
    <path class="st0" d="M26.01,22.3l5.42,5.42l5.42-5.42v-2.27H26.01V22.3z M36.86,42.84v-2.27l-5.42-5.42l-5.42,5.42v2.27H36.86z
	 M39.69,39.99v5.69H23.18v-5.69l0.41-1l7.55-7.55l-7.96-7.96v-6.28h16.51v6.28l-7.96,7.96l7.55,7.55l-1,1H39.69z M19.76,23.74v-9.97
	h23.35v9.97l-0.41,1l-6.69,6.69l7.11,7.11V49.1H19.76V38.54l7.11-7.11l-7.11-7.11V23.74z M22.59,16.61v6.55l8.28,8.28l-8.28,8.28
	v6.55h17.69v-6.55L32,31.44l8.28-8.28v-6.55H22.59z"/>
</svg>
